<svg xmlns="http://www.w3.org/2000/svg" viewBox="0 0 112 112" role="img" aria-hidden="true"><rect x="0" y="0" width="112" height="112" rx="12" fill="#f7f2e9" /><rect x="6.5" y="6.5" width="99" height="99" rx="7" fill="#b8aa9a" /><rect x="11.5" y="11.5" width="20" height="20" rx="2" fill="#cdc0b1" /><rect x="34.5" y="11.5" width="20" height="20" rx="2" fill="#cdc0b1" /><rect x="57.5" y="11.5" width="20" height="20" rx="2" fill="#cdc0b1" /><rect x="80.5" y="11.5" width="20" height="20" rx="2" fill="#cdc0b1" /><rect x="11.5" y="34.5" width="20" height="20" rx="2" fill="#cdc0b1" /><rect x="34.5" y="34.5" width="20" height="20" rx="2" fill="#cdc0b1" /><rect x="57.5" y="34.5" width="20" height="20" rx="2" fill="#cdc0b1" /><rect x="80.5" y="34.5" width="20" height="20" rx="2" fill="#cdc0b1" /><rect x="11.5" y="57.5" width="20" height="20" rx="2" fill="#cdc0b1" /><rect x="34.5" y="57.5" width="20" height="20" rx="2" fill="#cdc0b1" /><rect x="57.5" y="57.5" width="20" height="20" rx="2" fill="#cdc0b1" /><rect x="80.5" y="57.5" width="20" height="20" rx="2" fill="#cdc0b1" /><rect x="11.5" y="80.5" width="20" height="20" rx="2" fill="#cdc0b1" /><rect x="34.5" y="80.5" width="20" height="20" rx="2" fill="#cdc0b1" /><rect x="57.5" y="80.5" width="20" height="20" rx="2" fill="#cdc0b1" /><rect x="80.5" y="80.5" width="20" height="20" rx="2" fill="#cdc0b1" /><rect x="11.5" y="11.5" width="20" height="20" rx="2" fill="#eee4da" /><text x="21.5" y="21.5" text-anchor="middle" dominant-baseline="central" font-family="Arial,'Microsoft YaHei',sans-serif" font-size="11" font-weight="700" fill="#594b3d">2</text><rect x="80.5" y="11.5" width="20" height="20" rx="2" fill="#ead3a3" /><text x="90.5" y="21.5" text-anchor="middle" dominant-baseline="central" font-family="Arial,'Microsoft YaHei',sans-serif" font-size="11" font-weight="700" fill="#594b3d">4</text><rect x="11.5" y="80.5" width="20" height="20" rx="2" fill="#f2b179" /><text x="21.5" y="90.5" text-anchor="middle" dominant-baseline="central" font-family="Arial,'Microsoft YaHei',sans-serif" font-size="11" font-weight="700" fill="#fffaf1">8</text><rect x="80.5" y="80.5" width="20" height="20" rx="2" fill="#f59563" /><text x="90.5" y="90.5" text-anchor="middle" dominant-baseline="central" font-family="Arial,'Microsoft YaHei',sans-serif" font-size="11" font-weight="700" fill="#fffaf1">16</text><rect x="34.5" y="34.5" width="20" height="20" rx="2" fill="#80aa75" /><text x="44.5" y="44.5" text-anchor="middle" dominant-baseline="central" font-family="Arial,'Microsoft YaHei',sans-serif" font-size="14" font-weight="700" fill="#f7f0d7">✦</text><rect x="57.5" y="34.5" width="20" height="20" rx="2" fill="#80aa75" /><text x="67.5" y="44.5" text-anchor="middle" dominant-baseline="central" font-family="Arial,'Microsoft YaHei',sans-serif" font-size="14" font-weight="700" fill="#f7f0d7">✦</text><rect x="34.5" y="57.5" width="20" height="20" rx="2" fill="#80aa75" /><text x="44.5" y="67.5" text-anchor="middle" dominant-baseline="central" font-family="Arial,'Microsoft YaHei',sans-serif" font-size="14" font-weight="700" fill="#f7f0d7">✦</text></svg>
