<svg xmlns="http://www.w3.org/2000/svg" viewBox="0 0 128 128">
<rect width="128" height="128" rx="15" fill="#746657"/><rect x="8" y="8" width="112" height="112" rx="11" fill="#67594c"/>
<g fill="#827263"><rect x="14" y="14" width="46" height="46" rx="6"/><rect x="68" y="14" width="46" height="46" rx="6"/><rect x="14" y="68" width="46" height="46" rx="6"/><rect x="68" y="68" width="46" height="46" rx="6"/></g>
<rect x="14" y="14" width="46" height="46" rx="6" fill="#b79d51"/><text x="37" y="42" fill="#fff" font-family="Arial,sans-serif" font-size="22" font-weight="bold" text-anchor="middle">256</text><path d="M24 51h26" stroke="#fff" stroke-width="3" stroke-linecap="round"/><path d="m24 51 4-4m-4 4 4 4m22-4-4-4m4 4-4 4" stroke="#fff" stroke-width="2"/>
<rect x="68" y="68" width="46" height="46" rx="6" fill="#b39343"/><text x="91" y="98" fill="#fff" font-family="Arial,sans-serif" font-size="22" font-weight="bold" text-anchor="middle">512</text><path d="M91 76v10" stroke="#fff" stroke-width="3" stroke-linecap="round"/>
</svg>
